<svg xmlns="http://www.w3.org/2000/svg" version="1.1" xmlns:xlink="http://www.w3.org/1999/xlink" xmlns:svgjs="http://svgjs.dev/svgjs" width="100%" height="100%" viewBox="0 0 1000 600"><rect width="1000" height="600" x="0" y="0" fill="white"/><g><rect width="333.3333333333333" height="333.3333333333333" rx="13.333333333333334" ry="13.333333333333334" y="194.16637424361582" fill="#070736" transform="matrix(0.7269804033581667,0,0,0.7269804033581668,0,37.68147349644002)" x="171.94415283203125"/><path d="M327.9145593811919 423.9171655706916L327.9145593811919 296.54333379499076L293.2042790073601 297.7489412716262L286.1388584466125 339.94520295386917L272.79306405408914 339.94520295386917L276.24166218493025 285.833053421159L401.98932573633215 285.833053421159L404.42857807278074 339.94520295386917L391.69960611016387 339.94520295386917L385.05474629707976 297.7489412716262L350.1201668578274 296.54333379499076L350.1201668578274 423.9171655706916L378.77437246530405 425.93585715947677L378.77437246530405 435.833053421159L301.6715687269863 435.833053421159L301.6715687269863 425.93585715947677L327.9145593811919 423.9171655706916Z " fill="#2021f5" transform="matrix(0.7269804033581667,0,0,0.7269804033581668,0,37.68147349644002)"/><path d="M599.7637343793765 390.5135801252063L599.7637343793765 304.8484903881183L588.8786437004121 303.18416193632584L588.8786437004121 296.2972855840812L626.3547291838768 296.2972855840812L626.3547291838768 303.18416193632584L614.5131279004339 304.8484903881183L614.5131279004339 341.9037112056127L662.9890853354007 341.9037112056127L662.9890853354007 304.8484903881183L651.8361716871822 303.18416193632584L651.8361716871822 296.2972855840812L688.7383508079599 296.2972855840812L688.7383508079599 303.18416193632584L677.872390341085 304.8484903881183L677.872390341085 390.5135801252063L688.7383508079599 391.8909553956553L688.7383508079599 398.643920263273L651.7022602025552 398.643920263273L651.7022602025552 391.8909553956553L662.9890853354007 390.5135801252063L662.9890853354007 350.43578579756024L614.5131279004339 350.43578579756024L614.5131279004339 390.5135801252063L626.4886406685039 391.8909553956553L626.4886406685039 398.643920263273L588.6108207311581 398.643920263273L588.6108207311581 391.8909553956553L599.7637343793765 390.5135801252063ZM718.218007637985 308.42584004886766Q713.8180588573844 308.42584004886766 711.6180844670839 305.93891247722377Q709.398979864694 303.4711151176694 709.398979864694 299.60681227557654L709.398979864694 299.60681227557654Q709.398979864694 295.2068634949758 712.0963397693231 292.31820146945097Q714.7745694618627 289.4104092318365 719.4614714238071 289.4104092318365L719.4614714238071 289.4104092318365Q724.1483733857514 289.4104092318365 726.3483477760517 291.89733680348047Q728.5483221663521 294.3842643751243 728.5483221663521 298.2294370051276L728.5483221663521 298.2294370051276Q728.5483221663521 302.9163389670719 725.8700924738125 305.6710895079698Q723.1727325691834 308.42584004886766 718.3519191226121 308.42584004886766L718.3519191226121 308.42584004886766L718.218007637985 308.42584004886766ZM712.7085065561894 390.6474916098333L712.7085065561894 332.797730250978L702.2442805431954 330.3299328914237L702.2442805431954 323.0221918732085L723.5935972351538 320.40135281693756L723.8614202044078 320.40135281693756L727.0370354112762 322.8882803885815L727.0370354112762 390.80053330654994L738.0560375748677 391.8909553956553L738.0560375748677 398.643920263273L701.5555929079709 398.643920263273L701.5555929079709 391.8909553956553L712.7085065561894 390.6474916098333ZM780.7546709587847 435.83305256539427Q763.1166154122025 435.83305256539427 755.1967076071212 430.2470306352403Q747.2767998020397 424.6801389171758 747.2767998020397 414.90460053940626L747.2767998020397 414.90460053940626Q747.2767998020397 408.840323307013 751.0645817957743 403.73255667909825Q754.8523637895089 398.643920263273 760.0940419020507 396.02308120700206L760.0940419020507 396.02308120700206Q753.7619417004034 392.4457315462528 753.7619417004034 384.4493028928131L753.7619417004034 384.4493028928131Q753.7619417004034 379.4945779616148 756.6506037259284 375.09462918101406Q759.5392657514532 370.67555018832377 764.2261677133974 368.34166431339634L764.2261677133974 368.34166431339634Q757.3392913611528 365.31909080324453 753.6854208520451 359.6565480247323Q750.0315503429376 354.01313545830953 750.0315503429376 346.30365998621346L750.0315503429376 346.30365998621346Q750.0315503429376 338.30723133277377 754.5080199718966 332.39599579709704Q758.9844896008557 326.4656300493308 766.3687514674291 323.309145054552Q773.7338831219131 320.1335298476836 781.9981347446067 320.1335298476836L781.9981347446067 320.1335298476836Q795.905798933723 320.1335298476836 803.7491858904461 325.9108538987333L803.7491858904461 325.9108538987333Q805.8152487961195 323.84479099306 810.1004163041829 321.93176978410304Q814.3664536001567 319.9996183630566 819.1872670467279 319.9996183630566L819.1872670467279 319.9996183630566L823.8741690086722 319.9996183630566L823.8741690086722 332.10904261575354L808.723041033734 332.10904261575354Q812.0134375131397 337.2168092436683 812.0134375131397 343.96977411128603L812.0134375131397 343.96977411128603Q812.0134375131397 352.0809840372631 807.9578325501512 358.3556936026416Q803.9022275871627 364.63040316802005 796.6710074173058 368.07384134414247Q789.4397872474489 371.51727952026476 780.3338062928142 371.51727952026476L780.3338062928142 371.51727952026476Q774.4225707571376 371.51727952026476 769.7356687951932 370.2738157344428L769.7356687951932 370.2738157344428Q767.8035173741468 372.20596715548925 766.5600535883249 374.53985303041657Q765.3357200145924 376.873738905344 765.3357200145924 379.09284350773396L765.3357200145924 379.09284350773396Q765.3357200145924 384.0475684389322 768.6261164939982 385.90319901162036Q771.9356431854936 387.7588295843085 780.4868479895308 387.7588295843085L780.4868479895308 387.7588295843085L796.03971041835 387.7588295843085Q809.4117286689584 387.7588295843085 815.8777403552326 392.86659621222327Q822.3437520415067 397.9552326280485 822.3437520415067 407.3290365519372L822.3437520415067 407.3290365519372Q822.3437520415067 415.17242350866024 816.7003394750841 421.71495604329266Q811.0569269086614 428.2574885779252 801.491820863877 432.0452705716598Q791.9075846070032 435.83305256539427 780.7546709587847 435.83305256539427L780.7546709587847 435.83305256539427ZM781.7111815632632 363.9417155327957Q797.4170856887989 363.9417155327957 797.4170856887989 345.347149381735L797.4170856887989 345.347149381735Q797.4170856887989 336.1072569424733 793.3614807258105 331.76469879814135Q789.2867455507323 327.4412708658988 781.1755356247552 327.4412708658988L781.1755356247552 327.4412708658988Q773.5999716372861 327.4412708658988 769.1808926445957 331.63078731351436Q764.7809438639949 335.83943397321946 764.7809438639949 345.0601962003915L764.7809438639949 345.0601962003915Q764.7809438639949 353.74531248905555 768.9704603116105 358.8339489048808Q773.1791069713156 363.9417155327957 781.7111815632632 363.9417155327957L781.7111815632632 363.9417155327957ZM781.9981347446067 427.8366239119547Q788.7510996122244 427.8366239119547 794.7388559962593 425.84708185463955Q800.7266123802943 423.8575397973244 804.4378735256706 419.9167161068732Q808.1682648831364 415.9950226285117 808.1682648831364 410.7724747280595L808.1682648831364 410.7724747280595Q808.1682648831364 404.57428601103925 804.8587381916411 401.7430146217831Q801.5492115001457 398.911743232527 792.0414960916302 398.911743232527L792.0414960916302 398.911743232527L775.7999460275864 398.911743232527Q770.2904449457907 398.911743232527 767.1148297389224 398.2230555973025L767.1148297389224 398.2230555973025Q761.4714171724995 404.42124431432273 761.4714171724995 412.14984999850844L761.4714171724995 412.14984999850844Q761.4714171724995 419.8593254706045 766.1583191344439 423.8575397973244Q770.8452210963882 427.8366239119547 781.9981347446067 427.8366239119547L781.9981347446067 427.8366239119547ZM838.872255286894 390.80053330654994L838.872255286894 295.89555113020026L827.3176071847946 294.3842643751243L827.3176071847946 288.45389862735806L849.7573459658586 285.8330595710872L850.0442991472021 285.8330595710872L853.0668726573539 287.89912247676057L853.0668726573539 319.8657068784297L852.5120965067564 331.57339667724557Q856.9311754994467 327.5751823505258 864.6406509715429 323.9978326897765Q872.3501264436389 320.40135281693756 880.1935134003621 320.40135281693756L880.1935134003621 320.40135281693756Q888.8786296890262 320.40135281693756 893.6994431355974 323.710879508433Q898.5202565821687 327.0204061999283 900.4524080032152 333.8307617038147Q902.3845594242616 340.6602474197907 902.3845594242616 352.2340257339797L902.3845594242616 352.2340257339797L902.3845594242616 390.6474916098333L912.0261863174042 391.8909553956553L912.0261863174042 398.643920263273L879.1030913112567 398.643920263273L879.1030913112567 391.8909553956553L888.0560305691747 390.6474916098333L888.0560305691747 352.0809840372631Q888.0560305691747 343.96977411128603 886.9464782679798 339.34026278561043Q885.8560561788744 334.7298816720245 882.8143524566331 332.4533864333657Q879.7917789464811 330.1960214067967 873.7275017140879 330.1960214067967L873.7275017140879 330.1960214067967Q868.7727767828897 330.1960214067967 863.1293642164669 332.663818766351Q857.4668214379546 335.150746337995 853.2007841419809 338.4602730294903L853.2007841419809 338.4602730294903L853.2007841419809 390.6474916098333L862.7084995504964 391.8909553956553L862.7084995504964 398.643920263273L830.6080036642004 398.643920263273L830.6080036642004 391.8909553956553L838.872255286894 390.80053330654994ZM945.7718804434032 400.02129553372197Q937.9093632745904 400.02129553372197 934.0641906445871 396.44394587297256Q930.1998878024943 392.86659621222327 930.1998878024943 384.1814799235592L930.1998878024943 384.1814799235592L930.1998878024943 331.28644349590206L920.2904379400977 331.28644349590206L920.2904379400977 325.08825477888183Q920.9791255753223 324.95434329425484 924.1356105701011 324.1317441744035Q927.3112257769694 323.309145054552 928.4016478660749 322.6204574193275L928.4016478660749 322.6204574193275Q930.6207524684648 321.37699363350555 931.8450860421972 317.64660227603974L931.8450860421972 317.64660227603974Q932.9546383433922 315.0448934318584 934.465925098468 309.2484391687191Q935.9772118535441 303.4711151176694 936.2641650348876 302.3615628164744L936.2641650348876 302.3615628164744L944.3945051729543 302.3615628164744L944.6623281422081 322.199592753357L967.6568430738696 322.199592753357L967.6568430738696 331.28644349590206L944.6623281422081 331.28644349590206L944.6623281422081 373.5833424259382Q944.6623281422081 381.4267293826613 945.1405834444474 384.6023445895297Q945.6188387466866 387.7588295843085 947.2066463501208 388.7344704008765Q948.7944539535549 389.69098100535496 952.6587567956478 389.69098100535496L952.6587567956478 389.69098100535496Q956.3700179410241 389.69098100535496 960.8464875699832 388.7344704008765Q965.3229571989423 387.7588295843085 967.8098847705861 386.66840749520304L967.8098847705861 386.66840749520304L969.8759476762596 392.86659621222327Q966.5664209847641 395.3343935717777 959.2012893302802 397.68740965879454Q951.8170274637068 400.02129553372197 945.7718804434032 400.02129553372197L945.7718804434032 400.02129553372197ZM1012.1537163942061 400.15520701834896Q995.4913016641918 400.15520701834896 986.748794739259 389.27011633938446Q977.9871576022365 378.4041558725095 977.9871576022365 360.21132417532976L977.9871576022365 360.21132417532976Q977.9871576022365 348.2358114072598 982.540148079554 339.14896066471476Q987.0931385568713 330.0429797100801 995.2808693312065 325.08825477888183Q1003.468600105542 320.1335298476836 1013.9519563306255 320.1335298476836L1013.9519563306255 320.1335298476836Q1026.7500682185469 320.1335298476836 1033.8473769037769 327.2308385329136Q1040.9446855890067 334.3281472181435 1041.3464200428875 347.5471237720353L1041.3464200428875 347.5471237720353Q1041.3464200428875 355.945286879356 1040.3899094384092 360.34523565995676L1040.3899094384092 360.34523565995676L993.004374092548 360.34523565995676Q993.2913272738914 373.9850768798191 999.3364742941951 382.32584935087107Q1005.4007515265884 390.6474916098333 1016.5536651748068 390.6474916098333L1016.5536651748068 390.6474916098333Q1022.0631662566027 390.6474916098333 1028.070052852727 388.6579495525182Q1034.057809236762 386.66840749520304 1037.3673359282575 383.9136569543052L1037.3673359282575 383.9136569543052L1039.9690447724388 389.9588039746088Q1035.9899606578085 394.0909297859557 1028.1274434889958 397.13263350819705Q1020.2840565322726 400.15520701834896 1012.1537163942061 400.15520701834896L1012.1537163942061 400.15520701834896ZM993.1382855771749 353.05662485383107L1026.1952920679494 353.05662485383107Q1026.61615673392 350.16796282830626 1026.61615673392 347.1262591060648L1026.61615673392 347.1262591060648Q1026.4822452492929 338.1733198481468 1022.8283747401854 333.0081625839632Q1019.1745042310777 327.84300531977976 1011.3311172743546 327.84300531977976L1011.3311172743546 327.84300531977976Q1003.3346886209149 327.84300531977976 998.590396022702 333.639459582919Q993.8269732123993 339.41678363396875 993.1382855771749 353.05662485383107L993.1382855771749 353.05662485383107ZM1051.5428230866278 360.90001181055425Q1051.5428230866278 349.4792751930818 1056.0192927155867 340.2393827538202Q1060.4957623445457 331.0186205266481 1069.2382692694787 325.5665100811211Q1077.9999064065012 320.1335298476836 1090.243242143825 320.1335298476836L1090.243242143825 320.1335298476836Q1096.1736078915912 320.1335298476836 1100.439645187565 321.24308214887856Q1104.7056824835388 322.333504237984 1110.636048231305 324.2656556590305L1110.636048231305 324.2656556590305L1110.0812720807075 345.481060866362L1101.1283328227894 345.481060866362L1098.1057593126375 331.42035498052905Q1097.283160192786 327.5751823505258 1087.6415332996435 327.5751823505258L1087.6415332996435 327.5751823505258Q1077.9999064065012 327.5751823505258 1072.413884476347 335.36117867098017Q1066.827862546193 343.12804477934503 1066.827862546193 357.45657363443183L1066.827862546193 357.45657363443183Q1066.827862546193 373.7172539105652 1073.1025721115716 382.1919378662441Q1079.37728167695 390.6474916098333 1089.4206430239735 390.6474916098333L1089.4206430239735 390.6474916098333Q1095.2170972871127 390.6474916098333 1100.3822545512962 388.8683818855035Q1105.5474118154798 387.070141949084 1109.258672960856 384.6023445895297L1109.258672960856 384.6023445895297L1111.879512017127 390.11184567132545Q1108.149120659661 393.95701830132873 1100.9179004898042 397.05611265983885Q1093.6866803199473 400.15520701834896 1086.2641580291947 400.15520701834896L1086.2641580291947 400.15520701834896Q1074.9582026842595 400.15520701834896 1067.1722063638053 395.0665706025237Q1059.4053402554405 389.9588039746088 1055.4645165649893 381.0823855650491Q1051.5428230866278 372.20596715548925 1051.5428230866278 360.90001181055425L1051.5428230866278 360.90001181055425ZM1131.1627658034122 390.6474916098333L1131.1627658034122 295.89555113020026L1120.4115866090744 294.3842643751243L1120.4115866090744 288.45389862735806L1142.3156794516308 285.8330595710872L1142.4495909362577 285.8330595710872L1145.4912946584989 287.89912247676057L1145.4912946584989 355.2565992441315L1145.2043414771556 363.3869393821982L1177.017884182108 330.4638443760506L1166.6875696537409 328.53169295500425L1166.6875696537409 322.199592753357L1200.0315293258589 322.199592753357L1200.0315293258589 328.53169295500425L1189.1464386468942 330.4638443760506L1168.9066742561308 350.16796282830626L1195.0768043946605 390.80053330654994L1203.6088789866083 391.8909553956553L1203.6088789866083 398.643920263273L1170.1310078298632 398.643920263273L1170.1310078298632 391.8909553956553L1178.8161241185273 390.6474916098333L1159.3989588476154 358.7000374202538L1145.2043414771556 372.7416130939972L1145.4912946584989 379.78153114295844L1145.4912946584989 390.6474916098333L1155.2668330362685 391.8909553956553L1155.2668330362685 398.643920263273L1122.477649514748 398.643920263273L1122.477649514748 391.8909553956553L1131.1627658034122 390.6474916098333Z " fill="#0f0f75" transform="matrix(0.7269804033581667,0,0,0.7269804033581668,0,37.68147349644002)"/></g></svg>